# xmcd
#
# Track frame offsets: 
#        150
#        15342
#        32272
#        50266
#        66436
#        83955
#        93617
#        108531
#        126751
#        146731
#
# Disc length: 2148 seconds
#
# Revision: 3
# Processed by: cddbd v1.5.2PL0 Copyright (c) Steve Scherf et al.
# Submitted via: ExactAudioCopy v0.99pb4
#
DISCID=8108620a
DTITLE=Almir Sater - 7 sinais
DYEAR=2006
DGENRE=Caipira
TTITLE0=No rastro da lua cheia
TTITLE1=Maneira simples
TTITLE2=Serra de Maracajú
TTITLE3=Planície de prata
TTITLE4=7 sinais
TTITLE5=Pitiguyri
TTITLE6=Horizontes
TTITLE7=Lua nova
TTITLE8=Cubanita
TTITLE9=Três toques na madeira
EXTD=YEAR: 2007
EXTT0=
EXTT1=
EXTT2=
EXTT3=
EXTT4=
EXTT5=
EXTT6=
EXTT7=
EXTT8=
EXTT9=
PLAYORDER=
